PathFileType	4	(X/Y/Z)	C:\Users\Basilio\Documents\Thesis Gigler\squatting_fais\c3dfiles\058\SLS_front_pre3\markers_experimental.trc
DataRate	CameraRate	NumFrames	NumMarkers	Units	OrigDataRate	OrigDataStartFrame	OrigNumFrames
200.000000	200.000000	4	61	mm	200.000000	473	1263
Frame#	Time	FHD			LBHD			RBHD			C7			T10			CLAV			LSHO			LUUPA			LMUPA			LDUPA			LLEP			LMEP			LRAD			LUL			LRFIN			RSHO			RUPA1			RMUPA			RDUPA			RLEP			RMEP			RRAD			RUL			RUFIN			LASI			RASI			USACR			LSACR			RSACR			LTHI1			LTHI2			LTHI3			LTHI4			LLFC			LMFC			LTIB1			LTIB2			LTIB3			LTIB4			LLMAL			LMMAL			LHEE			LMT1			LMT2			LMT5			RTHI			RTHI2			RTHI3			RTHI4			RLFC			RMFC			RTIB1			RTIB2			RTIB3			RTIB4			RLMAL			RMMAL			RHEE			RMT1			RMT2			RMT5			
		X1	Y1	Z1	X2	Y2	Z2	X3	Y3	Z3	X4	Y4	Z4	X5	Y5	Z5	X6	Y6	Z6	X7	Y7	Z7	X8	Y8	Z8	X9	Y9	Z9	X10	Y10	Z10	X11	Y11	Z11	X12	Y12	Z12	X13	Y13	Z13	X14	Y14	Z14	X15	Y15	Z15	X16	Y16	Z16	X17	Y17	Z17	X18	Y18	Z18	X19	Y19	Z19	X20	Y20	Z20	X21	Y21	Z21	X22	Y22	Z22	X23	Y23	Z23	X24	Y24	Z24	X25	Y25	Z25	X26	Y26	Z26	X27	Y27	Z27	X28	Y28	Z28	X29	Y29	Z29	X30	Y30	Z30	X31	Y31	Z31	X32	Y32	Z32	X33	Y33	Z33	X34	Y34	Z34	X35	Y35	Z35	X36	Y36	Z36	X37	Y37	Z37	X38	Y38	Z38	X39	Y39	Z39	X40	Y40	Z40	X41	Y41	Z41	X42	Y42	Z42	X43	Y43	Z43	X44	Y44	Z44	X45	Y45	Z45	X46	Y46	Z46	X47	Y47	Z47	X48	Y48	Z48	X49	Y49	Z49	X50	Y50	Z50	X51	Y51	Z51	X52	Y52	Z52	X53	Y53	Z53	X54	Y54	Z54	X55	Y55	Z55	X56	Y56	Z56	X57	Y57	Z57	X58	Y58	Z58	X59	Y59	Z59	X60	Y60	Z60	X61	Y61	Z61	

474	2.365	-295.6629943847657	1631.704345703125	-623.0975341796876	-447.9790039062501	1564.479736328125	-691.6148071289064	-288.8549194335938	1640.109252929688	-764.9782714843751	-463.4487609863282	1442.960327148438	-708.2439575195314	-558.5242309570314	1152.625610351563	-701.0352172851564	-307.5719604492188	1375.695068359375	-694.3630371093751	-314.2492370605469	1436.0966796875	-843.108825683594	-168.8013153076172	1376.45068359375	-958.4627075195315	-143.0263824462891	1411.678344726563	-932.4244384765627	-98.71903991699222	1376.05126953125	-952.7798461914065	-22.59592628479004	1379.68115234375	-938.141296386719	-17.22814178466797	1322.0869140625	-906.0128173828127	nan	nan	nan	246.4722900390626	1417.279541015625	-913.4226074218752	340.0114746093751	1424.52392578125	-833.1196289062502	-323.5120239257813	1440.023559570313	-550.0147705078126	-170.4413299560547	1363.996704101563	-438.7935485839845	-147.8932037353516	1401.643310546875	-464.3133544921876	-101.3006134033203	1374.378173828125	-439.5677795410157	-33.01156234741212	1367.405517578125	-447.6260681152345	-23.03581047058106	1309.032836914063	-496.5459594726564	237.4026947021485	1409.044921875	-534.8635864257814	233.6943359375001	1420.096801757813	-453.3205566406251	325.8738098144532	1439.16357421875	-520.9211425781251	-409.4554748535157	957.5219726562502	-851.7415161132815	-394.6476135253907	940.9105224609377	-617.0069580078126	-593.9583740234376	1012.179260253906	-706.5219726562501	-604.2825317382814	982.295349121094	-735.0314941406251	-597.8734130859376	978.063903808594	-677.6063842773439	-295.3076477050782	759.8416137695314	-926.2730102539065	-217.3595581054688	728.1427001953126	-918.2749633789065	-189.0008239746094	757.2728881835939	-888.152770996094	-198.3771362304688	670.7991333007814	-911.6177978515627	-123.2808074951172	606.0863037109376	-900.5991210937502	-107.5338821411133	608.3082885742189	-772.3489990234377	13.35091590881348	553.9232177734376	-862.5276489257815	7.623466014862062	494.6921691894532	-922.4688110351565	39.79360580444337	514.4415893554689	-897.7861328125002	99.85453796386722	460.3106079101564	-874.3619384765627	206.0295867919922	282.8162841796876	-895.8363037109377	211.7085571289063	308.5519104003907	-807.413024902344	194.4635314941407	210.9694061279297	-844.3370361328127	346.8645324707032	373.2036437988282	-827.850524902344	346.8115234375001	380.8504333496094	-873.6194458007815	330.1280517578126	330.0255126953126	-927.9624633789065	-379.3695068359376	728.3757324218751	-556.4449462890626	-316.0832214355469	706.3728637695314	-561.7553710937501	-289.4329223632813	725.8908691406251	-565.9842529296876	-294.7267456054688	628.7381591796876	-585.7291259765626	-203.7217407226563	496.3375854492189	-621.4873657226564	-183.051010131836	506.4950561523439	-754.7693481445314	-216.8121948242188	317.0927124023438	-730.2304687500001	-274.5803833007813	249.8447570800782	-663.5060424804689	-247.2325439453126	237.6932983398438	-700.7781372070314	-273.7260742187501	202.4797058105469	-737.8292236328126	-363.3758544921876	114.6958694458008	-694.5612792968751	-333.5690917968751	136.6106414794922	-782.8960571289065	-435.7374267578126	100.5207824707032	-756.8223876953126	-227.3567504882813	59.48062133789064	-769.0683593750002	-220.6615295410157	61.2008743286133	-716.8299560546876	-270.1762390136719	29.83419990539551	-665.0944213867189	
475	2.37	-295.5992736816407	1630.021118164063	-623.0483398437501	-447.6885681152345	1562.7939453125	-691.6060791015626	-288.3344116210938	1638.627197265625	-765.0419921875001	-463.1837158203126	1441.521850585938	-708.2509155273439	-558.8824462890626	1151.3681640625	-700.9746704101564	-307.2490844726563	1374.060302734375	-694.3542480468751	-313.8031311035157	1434.550170898438	-842.9866943359377	-168.3885040283203	1375.073974609375	-958.3377075195315	-142.5990600585938	1410.4404296875	-932.297302246094	-98.40298461914065	1374.9765625	-952.6902465820315	-22.45851707458496	1378.3994140625	-937.8462524414065	-16.77873420715332	1320.747314453125	-906.1834716796877	nan	nan	nan	246.7956237792969	1416.042114257813	-913.5691528320315	340.3223571777344	1423.105346679688	-833.2031250000002	-323.2430114746094	1438.5478515625	-550.2003784179689	-170.1675109863282	1362.85107421875	-438.7135314941407	-147.2674560546875	1400.616821289063	-464.3650817871095	-101.1732177734375	1372.906494140625	-439.5864257812501	-32.51547622680665	1366.094360351563	-447.8032836914064	-22.71517181396485	1307.675170898438	-496.3686828613282	237.4856262207032	1407.816650390625	-534.4448852539064	234.6163482666016	1419.607055664063	-452.7753295898439	326.2806701660157	1437.902587890625	-520.7229003906251	-410.3610229492189	954.8992919921877	-852.0188598632815	-395.1928710937501	938.9502563476565	-617.5864257812501	-594.3079833984376	1010.978820800781	-706.4520263671876	-604.7719726562501	981.035827636719	-734.8200073242189	-598.2823486328126	977.1425781250002	-677.3739624023439	-295.6690979003907	758.8248901367189	-926.1560668945315	-217.5457305908204	727.2536621093751	-918.1753540039065	-189.4384002685547	756.4655761718751	-888.0481567382815	-198.6765747070313	670.1058959960939	-911.4233398437502	-123.4188995361328	605.1539306640626	-900.4866943359377	-107.4897613525391	607.2986450195314	-772.1854248046877	13.36179637908936	553.2034912109376	-862.4263916015627	7.353738307952883	493.8647766113282	-922.2817993164065	39.5614356994629	513.8209228515626	-897.6648559570315	99.76823425292972	459.5574340820314	-874.339782714844	205.8809814453126	282.1399536132813	-895.8507080078127	211.6432189941407	308.1274108886719	-806.105163574219	194.4312286376954	210.2256774902344	-844.247985839844	346.5324707031251	372.1163330078126	-827.8494873046877	346.6293029785157	380.1140136718751	-873.673034667969	330.1060791015626	329.5083312988282	-927.9907226562502	-379.2732238769532	727.6104736328126	-556.4118652343751	-315.8732299804688	705.9290161132814	-561.7427978515626	-289.4550476074219	724.9437866210939	-566.0797729492189	-294.0430908203126	627.9537353515626	-585.9976196289064	-202.7628326416016	496.0538024902345	-622.0551757812501	-183.1252746582032	506.0535888671876	-755.5828247070314	-216.562484741211	316.8836669921876	-730.8420410156251	-274.2453918457032	249.6200866699219	-663.8680419921876	-246.3617095947266	237.1737518310547	-700.8768920898439	-273.7058715820313	202.3990631103516	-738.2438964843751	-363.1785888671876	114.696159362793	-694.7521972656251	-333.5840759277344	136.4458618164063	-783.1650390625002	-435.5259094238282	100.4638137817383	-756.8923950195314	-227.401107788086	59.2948570251465	-769.2650146484377	-220.6399993896485	61.23750686645509	-716.8966064453126	-270.1506652832032	29.95436096191407	-665.1809692382814	
476	2.375	-295.0680541992188	1628.423706054688	-623.0494995117189	-447.1891174316407	1561.268798828125	-691.7088623046876	-288.1044616699219	1637.094482421875	-765.1111450195314	-462.8296813964845	1440.158935546875	-708.2627563476564	-559.2100219726564	1150.234130859375	-700.7290649414064	-306.9859313964844	1372.400390625	-694.3796386718751	-313.5034484863282	1433.041381835938	-842.9162597656252	-168.0413360595703	1373.627685546875	-958.290222167969	-142.3931427001953	1408.919677734375	-932.1236572265627	-98.13520812988284	1373.5146484375	-952.6481933593752	-22.07689857482911	1377.042724609375	-937.9072265625002	-16.69878005981446	1319.398193359375	-905.7873535156252	nan	nan	nan	247.1509704589844	1414.816040039063	-913.5651855468752	340.6567993164063	1421.896850585938	-833.319274902344	-323.1091308593751	1437.155029296875	-550.1262817382814	-169.9710235595703	1361.562133789063	-438.7712402343751	-147.2143249511719	1399.10693359375	-464.334686279297	-100.8939514160157	1371.716918945313	-439.438690185547	-32.28669738769532	1364.849609375	-447.7662658691407	-22.48849868774414	1306.551025390625	-496.4134216308595	238.2482147216797	1406.851440429688	-534.7305297851564	234.4691314697266	1417.758911132813	-452.968719482422	326.6976013183594	1436.824584960938	-520.5311279296876	-410.9273376464845	953.6883544921877	-851.9097900390627	-395.3251037597657	938.088806152344	-617.5900878906251	-594.8176269531251	1009.928649902344	-706.3103027343751	-605.3167724609376	979.7744750976565	-734.5739135742189	-598.9436035156251	975.9398193359377	-677.0645141601564	-296.1478271484376	757.7132568359376	-926.0227050781252	-217.8610839843751	726.3118896484376	-918.0594482421877	-189.7335510253907	755.6268920898439	-887.9434814453127	-199.0144805908204	669.0421752929689	-911.3657836914065	-123.4517974853516	604.3786621093751	-900.2963867187502	-107.8142395019532	606.5049438476564	-771.9350585937502	13.12717914581299	552.3244018554689	-862.1881103515627	7.419046401977541	493.1491088867189	-922.1417236328127	39.45478439331055	513.0012817382814	-897.4714965820315	99.51220703125003	458.8120422363282	-874.182556152344	205.6964416503907	281.3492431640626	-895.774841308594	211.2585906982422	307.3543090820313	-806.1545410156252	194.4956512451172	209.4622344970704	-844.1438598632815	346.5561828613282	371.2100524902344	-827.7961425781252	346.6587219238282	379.2896423339844	-873.6488037109377	330.1706237792969	328.7328491210938	-928.014587402344	-379.1695556640626	726.5340576171876	-556.4528198242189	-315.4980163574219	705.3991699218751	-562.1409301757814	-289.0004272460938	724.3041992187501	-566.4288940429689	-293.6957397460938	627.3480224609376	-586.2081909179689	-202.3182830810547	495.6925659179689	-622.5981445312501	-182.7490386962891	505.6648864746095	-756.2037353515626	-216.2899017333985	316.5865173339844	-731.4446411132814	-273.6412658691407	249.5202331542969	-664.3478393554689	-246.0429687500001	236.9085998535157	-701.3453979492189	-273.6679687500001	202.2093658447266	-738.6577148437501	-362.8912048339844	114.6236038208008	-695.0123901367189	-333.5321350097657	136.2431793212891	-783.4576416015627	-435.449920654297	100.3967895507813	-756.9736938476564	-227.1772460937501	59.33079528808595	-769.2830810546877	-220.5704040527344	61.3287811279297	-716.9909667968751	-270.1782226562501	30.01972198486329	-665.2388305664064	
477	2.38	-294.7269897460938	1627.15087890625	-623.1530761718751	-447.0337524414064	1559.853271484375	-691.8228759765626	-287.5864257812501	1635.606201171875	-765.0882568359376	-462.3914794921876	1439.138793945313	-708.2647094726564	-559.5062866210939	1149.189819335938	-700.6923217773439	-306.6813659667969	1370.684326171875	-694.3618774414064	-313.0530395507813	1431.482299804688	-842.8911743164065	-167.901123046875	1372.40673828125	-958.1793212890627	-142.0162353515625	1407.714233398438	-932.0722656250002	-97.85003662109378	1372.216552734375	-952.5736083984377	-21.78973388671875	1375.679443359375	-937.874938964844	-16.52817153930664	1317.890869140625	-905.681091308594	nan	nan	nan	247.4084167480469	1413.641479492188	-913.6434326171877	340.9300842285157	1420.674072265625	-833.4302368164065	-322.7700805664063	1435.716430664063	-550.2997436523439	-169.7031707763672	1360.306396484375	-438.6250915527345	-146.9115447998047	1397.964965820313	-464.4004211425782	-100.5810928344727	1370.520874023438	-439.493133544922	-32.11773681640626	1363.625610351563	-447.6512451171876	-22.14055824279786	1305.222900390625	-496.6355895996095	238.2319641113282	1405.57421875	-534.2169799804689	235.0786132812501	1416.957153320313	-452.6594543457032	327.1054077148438	1435.586669921875	-520.4272460937501	-411.4933471679689	952.4627685546877	-851.7920532226565	-395.6427001953126	937.0428466796877	-616.9426879882814	-595.2837524414064	1008.711120605469	-706.0048828125001	-605.7568969726564	978.6600341796877	-734.3959350585939	-599.4654541015626	974.6843261718752	-676.7836914062501	-296.6110534667969	756.7672119140626	-925.8746337890627	-218.152816772461	725.5928344726564	-918.0501708984377	-190.3160247802735	754.7233886718751	-887.786560058594	-198.9752197265626	668.2245483398439	-911.385437011719	-123.4700927734375	603.8032836914064	-900.0834960937502	-107.7765121459961	606.0781250000001	-771.7866821289065	13.14575576782227	551.6171875000001	-862.1854248046877	7.375092983245851	492.6297912597657	-922.0313110351565	39.21300888061524	512.1492919921876	-897.3358154296877	99.62331390380862	458.3768920898439	-874.0502929687502	205.6908416748047	280.8210449218751	-895.5327148437502	211.3399658203126	306.5934448242188	-806.0103759765627	194.1069793701172	208.9416503906251	-844.0198364257815	346.2022399902344	370.2337951660157	-827.7406005859377	346.4304199218751	378.6220092773438	-873.5491943359377	330.0732116699219	327.8776245117188	-927.844909667969	-378.7774963378907	725.9255981445314	-556.4877929687501	-315.3019409179688	704.3737182617189	-562.3231201171876	-288.8630065917969	723.9017333984376	-566.8010864257814	-293.1900634765626	626.8701171875001	-586.6641845703126	-201.8719940185547	495.3034057617189	-623.1689453125001	-182.5508880615235	505.4541320800782	-756.5993041992189	-215.9235534667969	316.4346618652344	-732.0566406250001	-273.1526184082032	249.5046844482422	-664.9952392578126	-245.927963256836	236.7926330566407	-701.9224243164064	-273.6103210449219	202.2928771972657	-739.1010742187501	-362.8271484375001	114.6328964233399	-695.2130737304689	-333.5207519531251	136.0562744140625	-783.674499511719	-435.4068603515626	100.4347229003907	-757.0135498046876	-227.1997833251954	59.19420623779298	-769.4429931640627	-220.5432434082032	61.30521774291994	-717.1760864257814	-270.0904235839844	30.25348281860352	-665.3454589843751	
